<svg width="40" height="40" viewBox="0 0 40 40" fill="none" xmlns="http://www.w3.org/2000/svg">
<path d="M20 40C31.0457 40 40 31.0457 40 20C40 8.9543 31.0457 0 20 0C8.9543 0 0 8.9543 0 20C0 31.0457 8.9543 40 20 40Z" fill="#B34927"/>
<path d="M29.2743 10.3846C26.8847 10.6871 24.3931 10.6765 21.8856 10.4378C18.3839 10.1684 13.2661 8.55224 11.3806 11.7846C8.35149 16.9593 9.84548 23.5842 10.5513 29.4469L21.0777 39.971C31.2642 39.4301 39.4281 31.2673 39.9707 21.0812L29.2743 10.3846Z" fill="#96381A"/>
<path d="M24.6272 8.55225H15.3729C11.6119 8.55225 8.55225 11.6119 8.55225 15.3729V24.6272C8.55225 28.388 11.6119 31.4479 15.3729 31.4479H24.6272C28.388 31.4479 31.448 28.3881 31.448 24.6272V15.3729C31.4479 11.6119 28.3881 8.55225 24.6272 8.55225ZM29.1446 24.6272C29.1446 27.1221 27.1221 29.1446 24.6272 29.1446H15.3729C12.8781 29.1446 10.8556 27.1221 10.8556 24.6272V15.3729C10.8556 12.8781 12.8781 10.8555 15.3729 10.8555H24.6272C27.1221 10.8555 29.1446 12.8782 29.1446 15.3729V24.6272Z" fill="white"/>
<path d="M20.0001 14.0784C16.7349 14.0784 14.0784 16.7349 14.0784 20.0001C14.0784 23.265 16.7349 25.9216 20.0001 25.9216C23.2652 25.9216 25.9216 23.2652 25.9216 20.0001C25.9216 16.7349 23.2652 14.0784 20.0001 14.0784ZM20.0001 23.6183C18.0017 23.6183 16.3817 21.9985 16.3817 20.0001C16.3817 18.0017 18.0017 16.3817 20.0001 16.3817C21.9984 16.3817 23.6183 18.0016 23.6183 20.0001C23.6183 21.9984 21.9984 23.6183 20.0001 23.6183Z" fill="white"/>
<path d="M27.3516 14.1231C27.3516 14.9067 26.7163 15.5421 25.9327 15.5421C25.1491 15.5421 24.5137 14.9067 24.5137 14.1231C24.5137 13.3394 25.1491 12.7041 25.9327 12.7041C26.7165 12.7041 27.3516 13.3393 27.3516 14.1231Z" fill="#D1D1D1"/>
<path d="M24.6271 8.55225H19.9551V10.8555H24.6271C27.122 10.8555 29.1445 12.8782 29.1445 15.3729V24.6272C29.1445 27.1221 27.122 29.1446 24.6271 29.1446H19.9551V31.4479H24.6271C28.3879 31.4479 31.4477 28.3881 31.4477 24.6272V15.3729C31.4477 11.6119 28.388 8.55225 24.6271 8.55225Z" fill="#D1D1D1"/>
<path d="M19.9999 14.0784C19.9848 14.0784 19.9702 14.0795 19.9551 14.0795V16.3827C19.97 16.3826 19.9848 16.3817 19.9999 16.3817C21.9983 16.3817 23.6181 18.0016 23.6181 20.0001C23.6181 21.9984 21.9984 23.6183 19.9999 23.6183C19.9848 23.6183 19.97 23.6174 19.9551 23.6172V25.9205C19.9702 25.9206 19.9848 25.9216 19.9999 25.9216C23.2651 25.9216 25.9214 23.2652 25.9214 20.0001C25.9214 16.7349 23.2651 14.0784 19.9999 14.0784Z" fill="#D1D1D1"/>
</svg>
