<svg width="40" height="40" viewBox="0 0 40 40" fill="none" xmlns="http://www.w3.org/2000/svg">
<g clip-path="url(#clip0)">
<path d="M20.0009 39.9998C31.0466 39.9998 40.0009 31.0456 40.0009 19.9999C40.0009 8.95427 31.0466 0 20.0009 0C8.95526 0 0.000976562 8.95427 0.000976562 19.9999C0.000976562 31.0456 8.95526 39.9998 20.0009 39.9998Z" fill="#4E598F"/>
<path d="M39.9684 18.8829L30.5483 9.45986C30.3922 9.50712 30.0029 9.32595 29.8317 9.36033C25.7913 10.0338 21.8856 9.36033 17.9799 10.4377C16.0943 10.9765 15.9596 13.266 15.2863 14.7475C14.3435 17.4411 14.4782 20.404 13.266 22.9629C12.458 24.7138 10.5725 25.7912 9.89903 27.8114C9.67442 28.654 9.6877 29.716 9.43372 30.5216L18.8852 39.9686C19.2544 39.9889 19.6259 40.0001 20 40.0001C31.0456 40.0001 39.9999 31.0457 39.9999 20.0001C40 19.6251 39.9888 19.2527 39.9684 18.8829Z" fill="#364270"/>
<path d="M28.3626 8.55188H11.6373C9.93345 8.55188 8.55212 9.93312 8.55212 11.637V28.3624C8.55212 30.0663 9.93337 31.4475 11.6373 31.4475H19.886L19.9003 23.2661H17.7745C17.4983 23.2661 17.274 23.0427 17.2731 22.7664L17.2627 20.129C17.2616 19.8514 17.4867 19.6256 17.7643 19.6256H19.8863V17.0773C19.8863 14.1201 21.6924 12.5099 24.3303 12.5099H26.4952C26.772 12.5099 26.9967 12.7344 26.9967 13.0115V15.2351C26.9967 15.5122 26.7722 15.7367 26.4955 15.7367L25.1669 15.7375C23.7323 15.7375 23.4543 16.4191 23.4543 17.4197V19.6259H26.6067C26.9074 19.6259 27.1403 19.8882 27.1048 20.1863L26.7922 22.8237C26.7624 23.0762 26.5483 23.2663 26.2942 23.2663H23.4685L23.4543 31.448H28.3625C30.0663 31.448 31.4477 30.0666 31.4477 28.3627V11.637C31.4477 9.9332 30.0664 8.55188 28.3626 8.55188Z" fill="white"/>
<path d="M19.8861 31.4474L19.9004 23.266H19.8654V31.4474H19.8861Z" fill="white"/>
<path d="M28.3626 8.55188H19.8654V19.6254H19.8864V17.0772C19.8864 14.12 21.6925 12.5098 24.3304 12.5098H26.4952C26.772 12.5098 26.9968 12.7343 26.9968 13.0113V15.235C26.9968 15.512 26.7723 15.7365 26.4956 15.7365L25.167 15.7373C23.7324 15.7373 23.4544 16.419 23.4544 17.4196V19.6257H26.6068C26.9074 19.6257 27.1404 19.888 27.1048 20.1861L26.7923 22.8235C26.7625 23.076 26.5484 23.266 26.2942 23.266H23.4686L23.4543 31.4477H28.3626C30.0664 31.4477 31.4477 30.0663 31.4477 28.3625V11.637C31.4478 9.9332 30.0665 8.55188 28.3626 8.55188Z" fill="#D1D1D1"/>
</g>
<defs>
<clipPath id="clip0">
<rect width="40" height="40" fill="white"/>
</clipPath>
</defs>
</svg>
