<svg width="64" height="64" viewBox="0 0 64 64" fill="none" xmlns="http://www.w3.org/2000/svg">
<path d="M64 32C64 49.6733 49.6733 64 32 64C14.3267 64 0 49.6733 0 32C0 14.3267 14.3267 0 32 0C49.6733 0 64 14.3267 64 32Z" fill="#FF2E00"/>
<path d="M64 32C64 29.2022 63.6396 26.4888 62.9653 23.9024L51.4873 12.4243C47.4033 8.34036 40.7466 8.29397 36.1924 12.1621C32.2256 10.0269 27.0312 10.752 23.5215 14.2617C20.3574 17.4263 19.4565 21.9595 20.875 25.7285C20.6489 25.9107 20.4292 26.1055 20.2192 26.3159C17.2949 29.2403 17.0737 33.7993 19.6416 36.7007L22.105 39.1553L11.1865 50.0738L24.1387 63.0259C26.6538 63.6612 29.2876 64 32 64C49.6733 64 64 49.6734 64 32Z" fill="#BB1000"/>
<path d="M11.1865 50.0732L30.2554 31.0044L32.9067 33.6562L13.8379 52.7251L11.1865 50.0732Z" fill="white"/>
<path d="M12.5122 51.3989L31.5811 32.3306L32.9067 33.6562L13.8379 52.7251L12.5122 51.3989Z" fill="#FFF5CA"/>
<path d="M15.4053 45.855L12.4995 48.7607L16.3398 50.2236L19.2456 47.3179L15.4053 45.855Z" fill="#FFEE93"/>
<path d="M19.2451 47.3184L16.3398 50.2236L14.4194 49.4927L17.3252 46.5864L19.2451 47.3184Z" fill="#FFDC00"/>
<path d="M24.1455 42.418L20.3052 40.9551L17.3994 43.8608L21.2397 45.3242L24.1455 42.418Z" fill="#FFEE93"/>
<path d="M24.1455 42.418L21.2393 45.3242L19.3193 44.5923L22.2246 41.687L24.1455 42.418Z" fill="#FFDC00"/>
<path d="M49.6504 40.3902C53.1602 36.8804 53.8853 31.6865 51.75 27.7193C55.6182 23.1651 55.5718 16.5088 51.4878 12.4243C47.4033 8.34036 40.7466 8.29397 36.1929 12.1621C32.2256 10.0269 27.0317 10.752 23.522 14.2617C20.3574 17.4258 19.457 21.959 20.875 25.7281C20.6489 25.9107 20.4292 26.1055 20.2192 26.3159C17.1865 29.3482 17.061 34.1387 19.938 37.0161C21.2754 38.3535 23.0264 39.041 24.8213 39.0904C24.8711 40.8858 25.5586 42.6367 26.896 43.9737C29.7729 46.8511 34.564 46.7251 37.5962 43.6929C37.8066 43.4824 38.0015 43.2632 38.1836 43.0371C41.9526 44.4551 46.4858 43.5547 49.6504 40.3902Z" fill="#FFB3D7"/>
<path d="M38.1841 43.0371C38.0015 43.2627 37.8057 43.4824 37.5957 43.6924C34.5635 46.7246 29.773 46.8511 26.8965 43.9741C25.5586 42.6362 24.8706 40.8862 24.8218 39.0903L51.4873 12.4243C55.5718 16.5088 55.6177 23.165 51.75 27.7192C53.8848 31.6865 53.1597 36.8799 49.6494 40.3901C46.4854 43.5547 41.9526 44.4546 38.1841 43.0371Z" fill="#FF91C5"/>
<path d="M34.6201 19.8643C34.8379 20.082 35.0298 20.3159 35.1987 20.5615C36.6255 19.7168 38.4956 19.9077 39.7222 21.1343C39.9692 21.3813 40.1733 21.6548 40.3364 21.9453C41.1318 20.5283 40.9277 18.7012 39.7222 17.4951C38.4956 16.2686 36.6255 16.0776 35.1987 16.9224C35.0298 16.6768 34.8379 16.4429 34.6201 16.2251C32.6953 14.3003 29.5747 14.3003 27.6504 16.2251C26.2163 17.6592 25.8516 19.7568 26.5547 21.5293C26.7949 20.9233 27.1597 20.3545 27.6504 19.8643C29.5747 17.9395 32.6953 17.9395 34.6201 19.8643Z" fill="#FF92C5"/>
<path d="M43.6167 31.1495C42.8608 30.314 41.6621 30.1187 40.7007 30.5972C40.8867 30.7144 41.0605 30.858 41.2153 31.0289C42.0635 31.9668 42.0537 33.379 41.2353 34.3042C41.2695 34.3389 41.3032 34.3736 41.3359 34.4102C42.5425 35.7437 42.4394 37.8028 41.106 39.0088C40.7661 39.3165 40.3789 39.5381 39.9707 39.6768C41.1172 40.1993 42.5132 40.0279 43.5068 39.129C44.8403 37.9229 44.9433 35.8638 43.7373 34.5303C43.7046 34.4942 43.6704 34.459 43.6367 34.4244C44.4551 33.4991 44.4648 32.087 43.6167 31.1495Z" fill="#FF74B3"/>
</svg>
