<svg width="84" height="21" viewBox="0 0 84 21" fill="none" xmlns="http://www.w3.org/2000/svg">
<path d="M10.0785 20.3563C9.07313 20.3563 8.51321 19.8664 8.39877 18.8866C8.28434 18.0526 8.1699 17.2146 8.05547 16.3725C7.93286 15.4818 7.87155 14.6437 7.87155 13.8583C7.87155 13.6478 7.88381 13.2874 7.90833 12.7773C7.94103 12.2672 7.95738 11.9069 7.95738 11.6964C7.95738 11.6397 7.96555 11.498 7.9819 11.2713C7.99825 11.0364 8.00642 10.8462 8.00642 10.7004C8.00642 10.0283 7.83068 9.69231 7.4792 9.69231C6.72719 9.69231 5.98745 10.1296 5.25996 11.004C4.54065 11.8704 3.97665 12.9717 3.56795 14.3077C3.5516 14.5749 3.51482 14.9312 3.4576 15.3765C3.40855 15.7409 3.38403 16.0972 3.38403 16.4453C3.38403 16.6721 3.40855 17.0162 3.4576 17.4777C3.51482 17.9312 3.54342 18.2713 3.54342 18.498C3.54342 18.9595 3.37994 19.3401 3.05298 19.6397C2.7342 19.9474 2.32959 20.1012 1.83915 20.1012C1.34871 20.1012 0.944096 19.9474 0.62531 19.6397C0.306525 19.3401 0.147132 18.9595 0.147132 18.498C0.147132 18.2713 0.12261 17.9312 0.0735659 17.4777C0.024522 17.0162 0 16.6721 0 16.4453C0 15.668 0.0572179 14.587 0.171654 13.2024C0.28609 11.8178 0.343308 10.7368 0.343308 9.95951C0.343308 9.7166 0.32696 9.35628 0.294264 8.87854C0.269742 8.39271 0.257481 8.03239 0.257481 7.79757C0.257481 7.34413 0.42096 6.97166 0.74792 6.68016C1.08305 6.38057 1.49175 6.23077 1.97402 6.23077C3.04481 6.23077 3.61699 6.8664 3.69056 8.13765L3.70282 8.27126C4.89622 7.08097 6.15501 6.48583 7.4792 6.48583C9.02408 6.48583 10.0908 7.12551 10.6793 8.40486C11.0717 9.26316 11.2678 10.5466 11.2678 12.2551V13.1174C11.2597 13.4899 11.2556 13.753 11.2556 13.9069C11.2556 14.5385 11.3414 15.3522 11.5131 16.3482C11.6929 17.3441 11.7828 18.1538 11.7828 18.7773C11.7828 19.2308 11.6193 19.6073 11.2924 19.9069C10.9654 20.2065 10.5608 20.3563 10.0785 20.3563Z" fill="#131415"/>
<path d="M24.3013 12.4737C24.3013 13.0162 24.3054 13.834 24.3135 14.9271C24.3217 16.0202 24.3258 16.8381 24.3258 17.3806C24.3258 17.5506 24.3381 17.8057 24.3626 18.1457C24.3953 18.4777 24.4116 18.7287 24.4116 18.8988C24.4116 19.3522 24.2441 19.7247 23.9089 20.0162C23.582 20.3158 23.1773 20.4656 22.6951 20.4656C22.0166 20.4656 21.5221 20.1619 21.2115 19.5547C20.1652 19.9352 19.0822 20.1255 17.9623 20.1255C16.8016 20.1255 15.8248 19.8826 15.032 19.3968C14.141 18.8381 13.6097 18.0243 13.438 16.9555C13.1193 14.9312 12.9599 13.1215 12.9599 11.5263C12.9599 10.4737 13.0825 9.27126 13.3277 7.91903C13.4912 7.00405 14.0429 6.54656 14.9829 6.54656C15.457 6.54656 15.8616 6.69636 16.1968 6.99595C16.5319 7.28745 16.6995 7.65992 16.6995 8.11336C16.6995 8.46964 16.6382 9.02834 16.5155 9.78947C16.4011 10.5506 16.3439 11.1296 16.3439 11.5263C16.3439 12.668 16.3807 13.668 16.4542 14.5263C16.536 15.3765 16.6545 16.081 16.8098 16.6397C17.0142 16.7287 17.2103 16.7976 17.3983 16.8462C17.5945 16.8947 17.7825 16.919 17.9623 16.919C18.8697 16.919 19.8669 16.7895 20.954 16.5304C20.954 15.9069 20.9499 15.1984 20.9418 14.4049C20.9254 13.4575 20.9172 12.7773 20.9172 12.3644C20.9172 10.7045 20.9949 9.27126 21.1502 8.06478C21.2728 7.10121 21.8286 6.61943 22.8177 6.61943C23.3 6.61943 23.7127 6.76923 24.0561 7.06883C24.3994 7.36842 24.5588 7.74494 24.5342 8.19838C24.3789 11.2834 24.3013 12.7085 24.3013 12.4737Z" fill="#131415"/>
<path d="M35.2871 9.7166C35.1155 9.7166 34.9111 9.71255 34.6741 9.70445C34.4452 9.68826 34.2449 9.68016 34.0733 9.68016C33.7381 9.68016 33.3499 9.71255 32.9085 9.77733C33.0556 13.0486 33.1292 15.1862 33.1292 16.1903C33.1292 16.2955 33.1333 16.4939 33.1414 16.7854C33.1496 17.0688 33.1537 17.2996 33.1537 17.4777C33.1537 19.3401 32.5611 20.2713 31.3759 20.2713C30.9263 20.2713 30.538 20.1336 30.2111 19.8583C29.8514 19.5668 29.6716 19.2024 29.6716 18.7652C29.6716 18.4737 29.6838 18.0364 29.7084 17.4534C29.7329 16.8704 29.7451 16.4332 29.7451 16.1417C29.7451 15.1619 29.6716 13.0648 29.5244 9.8502C29.0177 9.82591 28.2493 9.76113 27.2194 9.65587C26.1976 9.54251 25.6868 9.01619 25.6868 8.07692C25.6868 7.62348 25.8421 7.23887 26.1527 6.92308C26.4633 6.60729 26.8638 6.44939 27.3543 6.44939C27.6567 6.44939 28.3515 6.49798 29.4386 6.59514C29.4304 6.33603 29.41 5.90688 29.3773 5.30769C29.3446 4.78947 29.3283 4.38866 29.3283 4.10526C29.3283 3.65182 29.4958 3.2753 29.831 2.97571C30.1661 2.67611 30.5707 2.52632 31.0448 2.52632C32.2546 2.52632 32.8594 3.53441 32.8594 5.55061L32.8349 6.54656C33.3417 6.47368 33.7545 6.43725 34.0733 6.43725C35.0133 6.43725 35.6549 6.49798 35.9982 6.61943C36.6522 6.84615 36.9791 7.34008 36.9791 8.10121C36.9791 8.56275 36.8197 8.94737 36.5009 9.25506C36.1822 9.56275 35.7776 9.7166 35.2871 9.7166Z" fill="#131415"/>
<path d="M41.6506 8.74494C42.8848 7.32794 44.0537 6.61943 45.1572 6.61943C46.416 6.61943 47.3397 7.09312 47.9282 8.04049C48.4268 7.60324 48.9785 7.2753 49.5834 7.05668C50.1883 6.83806 50.8422 6.72875 51.5452 6.72875C53.1473 6.72875 54.2344 7.51822 54.8066 9.09717C54.921 9.42105 55.0968 10.5182 55.3338 12.3887C55.5627 13.7004 55.857 15.8866 56.2166 18.9474C56.2493 19.4089 56.0899 19.7895 55.7384 20.0891C55.387 20.3887 54.9742 20.5385 54.5001 20.5385C53.5601 20.5385 53.0083 20.0769 52.8448 19.1538C52.6977 18.3198 52.5465 17.1417 52.3912 15.6194C52.2277 13.9514 52.0928 12.7692 51.9866 12.0729C51.7659 10.6235 51.4839 9.89879 51.1406 9.89879C50.9526 9.89879 50.5234 10.085 49.8532 10.4575C49.1829 10.83 48.6925 11.1498 48.3818 11.417C48.3818 12.3401 48.4922 13.668 48.7129 15.4008C48.9418 17.1741 49.0562 18.502 49.0562 19.3846C49.0562 19.8462 48.8968 20.2308 48.578 20.5385C48.2592 20.8462 47.8546 21 47.3642 21C46.8737 21 46.4691 20.8462 46.1503 20.5385C45.8316 20.2308 45.6722 19.8462 45.6722 19.3846C45.6722 18.4615 45.57 17.1053 45.3656 15.3158C45.1695 13.5182 45.0714 12.1579 45.0714 11.2348C45.0714 10.7166 45.0264 10.3036 44.9365 9.99595C43.9883 10.5385 43.0361 11.4413 42.0797 12.7045C42.0388 12.7611 41.9693 12.8462 41.8713 12.9595C41.8386 14.5951 41.8222 15.8785 41.8222 16.8097C41.8222 17.0364 41.814 17.3441 41.7977 17.7328C41.7813 18.1134 41.7732 18.3968 41.7732 18.583C41.7732 19.0202 41.5933 19.3644 41.2337 19.6154C40.9067 19.8502 40.5021 19.9676 40.0199 19.9676C39.3251 19.9676 38.8551 19.668 38.6098 19.0688C38.4382 18.664 38.3524 18.0202 38.3524 17.1377V12.6194C38.3524 12.2146 38.336 11.6235 38.3033 10.8462C38.2706 10.0607 38.2543 9.46559 38.2543 9.06073C38.2543 8.34008 38.3851 7.68826 38.6466 7.10526C38.9654 6.37652 39.415 6.01215 39.9953 6.01215C40.4531 6.01215 40.8618 6.19028 41.2214 6.54656C41.5811 6.89474 41.7609 7.27935 41.7609 7.70041C41.7609 7.53036 41.7241 7.87854 41.6506 8.74494Z" fill="#131415"/>
<path d="M60.79 4.89474C60.2668 4.89474 59.8132 4.72065 59.429 4.37247C59.0448 4.02429 58.8527 3.59919 58.8527 3.09717C58.8527 2.59514 59.0448 2.17004 59.429 1.82186C59.8132 1.47368 60.2668 1.2996 60.79 1.2996C61.3131 1.2996 61.7627 1.47368 62.1387 1.82186C62.5228 2.17004 62.7149 2.59514 62.7149 3.09717C62.7149 3.59919 62.5228 4.02429 62.1387 4.37247C61.7627 4.72065 61.3131 4.89474 60.79 4.89474ZM61.8321 13.7976C61.8321 14.2591 61.8444 15 61.8689 16.0202C61.9016 17.0405 61.918 17.7814 61.918 18.2429C61.918 18.7126 61.7586 19.1012 61.4398 19.4089C61.121 19.7085 60.7164 19.8583 60.226 19.8583C59.7355 19.8583 59.3309 19.7085 59.0121 19.4089C58.6933 19.1012 58.5339 18.7126 58.5339 18.2429C58.5339 17.7814 58.5176 17.0405 58.4849 16.0202C58.4604 15 58.4481 14.2591 58.4481 13.7976C58.4481 13.0769 58.489 12.1741 58.5707 11.0891C58.6525 10.004 58.6933 9.10121 58.6933 8.38057C58.6933 7.91093 58.8527 7.52632 59.1715 7.22672C59.4903 6.91903 59.8949 6.76518 60.3853 6.76518C60.8758 6.76518 61.2804 6.91903 61.5992 7.22672C61.918 7.52632 62.0774 7.91093 62.0774 8.38057C62.0774 9.10121 62.0365 10.004 61.9548 11.0891C61.873 12.1741 61.8321 13.0769 61.8321 13.7976Z" fill="#131415"/>
<path d="M68.8086 17.7085C68.8086 19.247 68.2446 20.0162 67.1166 20.0162C66.6262 20.0162 66.2216 19.8623 65.9028 19.5547C65.584 19.247 65.4246 18.8502 65.4246 18.3644V1.5668C65.4246 1.09717 65.5963 0.712551 65.9396 0.412955C66.2665 0.137652 66.6711 0 67.1534 0C67.6357 0 68.0321 0.145749 68.3427 0.437247C68.6533 0.720648 68.8086 1.09717 68.8086 1.5668V17.7085Z" fill="#131415"/>
<path d="M82.2344 19.9919C81.5887 19.9919 81.0982 19.6842 80.7631 19.0688C80.3626 18.332 79.7618 17.4615 78.9607 16.4575C77.7183 14.8947 77.0603 14.0648 76.9867 13.9676C76.3328 14.4453 75.7933 14.8097 75.3683 15.0607C75.2865 16.1862 75.2457 17.2632 75.2457 18.2915C75.2457 18.7611 75.0863 19.1498 74.7675 19.4575C74.4487 19.7652 74.0441 19.919 73.5536 19.919C72.4011 19.919 71.8248 19.2389 71.8248 17.8785C71.8248 17.2389 71.8698 16.2834 71.9597 15.0121C72.0578 13.7328 72.1068 12.7733 72.1068 12.1336C72.1068 10.9595 72.1232 9.61943 72.1559 8.11336C72.1968 6.59919 72.2172 5.26316 72.2172 4.10526C72.2172 3.75709 72.1968 3.34818 72.1559 2.87854C72.1232 2.40081 72.1068 1.98785 72.1068 1.63968C72.1068 1.17004 72.2662 0.785425 72.585 0.48583C72.9038 0.178138 73.3084 0.0242915 73.7989 0.0242915C74.2893 0.0242915 74.6939 0.178138 75.0127 0.48583C75.3315 0.785425 75.4909 1.17004 75.4909 1.63968C75.4909 1.99595 75.5113 2.417 75.5522 2.90283C75.5931 3.38866 75.6135 3.80972 75.6135 4.16599C75.6135 5.12955 75.589 6.27126 75.5399 7.59109C75.4909 8.85425 75.4704 9.97976 75.4786 10.9676C76.5903 10.1174 78.2823 8.57085 80.5547 6.32794C80.9143 5.97166 81.323 5.79352 81.7808 5.79352C82.2385 5.79352 82.6431 5.95951 82.9946 6.2915C83.3461 6.62348 83.5218 7.0081 83.5218 7.44534C83.5218 7.81781 83.3624 8.17814 83.0436 8.52632C82.0791 9.59514 80.9307 10.7126 79.5983 11.8785L82.1486 15.1336C83.3829 16.7611 84 17.8462 84 18.3887C84 18.834 83.8202 19.2105 83.4605 19.5182C83.1009 19.834 82.6922 19.9919 82.2344 19.9919Z" fill="#131415"/>
</svg>
