<svg width="20" height="20" viewBox="0 0 20 20" fill="none" xmlns="http://www.w3.org/2000/svg">
<path d="M10 20C15.5228 20 20 15.5228 20 10C20 4.47715 15.5228 0 10 0C4.47715 0 0 4.47715 0 10C0 15.5228 4.47715 20 10 20Z" fill="#4176FA"/>
<path d="M13.585 8.26081C10.6967 8.26081 10.693 11.1383 10.693 11.1531C10.693 11.1531 10.4951 14.0341 13.585 14.0341C13.585 14.0341 16.162 14.1806 16.162 12.029H14.8387C14.8387 12.029 14.8826 12.8391 13.6291 12.8391C13.6291 12.8391 12.3058 12.9271 12.3058 11.5304H16.206C16.206 11.5304 16.6349 8.26081 13.585 8.26081ZM12.291 10.5224C12.291 10.5224 12.4524 9.36406 13.6144 9.36406C14.7801 9.36406 14.7617 10.5224 14.7617 10.5224H12.291ZM8.98505 9.78208C8.98505 9.78208 10.1323 9.69776 10.1323 8.34887C10.1323 7.00373 9.19397 6.34381 8.00266 6.34381H4.08398V13.8763H8.00231C8.00231 13.8763 10.396 13.9498 10.396 11.6515C10.3962 11.6515 10.4988 9.78208 8.98505 9.78208ZM5.81061 7.68165H8.00248C8.00248 7.68165 8.53405 7.68165 8.53405 8.46599C8.53405 9.25033 8.22246 9.36406 7.86683 9.36406H5.81061V7.68165ZM7.89268 12.5385H5.81061V10.5224H8.00248C8.00248 10.5224 8.79806 10.5151 8.79431 11.5597C8.79431 12.4396 8.20427 12.5312 7.89268 12.5385ZM11.9648 6.78732V7.7148H15.0733V6.78732H11.9648Z" fill="#F1F2F2"/>
</svg>
