<svg width="20" height="20" viewBox="0 0 20 20" fill="none" xmlns="http://www.w3.org/2000/svg">
<g clip-path="url(#clip0)">
<path d="M16.2109 2.21869C16.2627 2.25982 16.3116 2.30658 16.3629 2.34892L16.3633 2.34756C16.3164 2.30072 16.2695 2.25385 16.2109 2.21869Z" fill="#FF7CB9"/>
<path d="M20 10.2108C19.9882 10.6209 19.9531 11.0194 19.8945 11.4178L16.996 14.4061L14.0547 19.0936C13.6914 19.2577 13.3047 19.41 12.9062 19.5272L9.99996 16.785L9.36719 16.1873L4.84371 18.5194C4.42184 18.2616 4.01168 17.9803 3.63668 17.6639L2.5234 12.3553L0.0351562 9.07406C0.0819922 8.67566 0.140586 8.2889 0.222617 7.90218L4.41008 5.01941L5.3007 1.22253C5.66399 1.02328 6.0507 0.847534 6.43746 0.706909L9.99996 1.78503L11.4062 2.21863L16.3632 2.34753C16.703 2.62878 17.0429 2.93347 17.3359 3.27335L17.289 7.46863L20 10.2108Z" fill="#FA5E97"/>
<path d="M20 10.211C19.9883 10.6211 19.9532 11.0196 19.8945 11.418L16.9961 14.4063L14.0547 19.0938C13.6914 19.2578 13.3047 19.4102 12.9062 19.5274L10 16.7852V1.78516L11.4062 2.21875L16.3632 2.34766C16.703 2.62891 17.043 2.93359 17.3359 3.27348L17.289 7.46875L20 10.211Z" fill="#D94F88"/>
<path d="M6.88285 7.7265C7.84371 7.53896 8.78129 7.28119 9.67184 6.99994C8.48832 4.83193 7.02348 2.8749 5.30078 1.2226C2.76957 2.58193 0.843711 5.00775 0.222656 7.90224C2.08598 8.27724 4.38676 8.23041 6.88285 7.7265Z" fill="#FF7CB9"/>
<path d="M16.3632 2.34762L16.1992 2.99215C15.9414 4.0234 13.7617 5.49996 10.9023 6.56641L10.7734 6.61324C10.5273 6.15621 10.2695 5.69914 10 5.26555C8.99215 3.60152 7.78512 2.06637 6.4375 0.707031C7.53906 0.273438 8.74606 0 9.99996 0C12.2382 0 14.3242 0.789062 15.9882 2.04293C16.1171 2.13668 16.2461 2.23047 16.3632 2.34762Z" fill="#FF7CB9"/>
<path d="M11.2305 10.4805C10.8086 10.6328 10.3985 10.7969 10 10.9844C6.60152 12.5079 4.07031 15.0391 3.67184 17.4532C3.6602 17.5235 3.64844 17.5938 3.63672 17.6641C1.44531 15.836 0 13.0821 0 10.0001C0 9.68362 0.0117188 9.37893 0.0351953 9.07424C0.960938 9.25006 1.9375 9.32038 2.8516 9.32038C4.44535 9.32038 5.95703 9.10944 7.11719 8.87506C8.11332 8.67588 9.07426 8.41803 10 8.12506C10.0704 8.10166 10.1407 8.07823 10.211 8.05475C10.5859 8.83991 10.9257 9.6485 11.2305 10.4805Z" fill="#FF7CB9"/>
<path d="M12.9064 19.5273C11.9923 19.8086 11.008 20 10.0002 20C8.11344 20 6.3439 19.4336 4.84386 18.5195C4.78527 18.2382 4.78527 17.9453 4.83222 17.6406C5.13683 15.7773 7.24629 13.668 10.0002 12.2851C10.5158 12.0273 11.0549 11.7812 11.6173 11.582C12.4142 14.0898 12.8595 16.7734 12.9064 19.5273Z" fill="#FF7CB9"/>
<path d="M19.8945 11.4179C19.4023 14.8515 17.125 17.7226 14.0547 19.0937C13.9727 16.375 13.5039 13.7265 12.7188 11.2304C15.3438 10.5039 17.8321 10.5859 19.8945 11.4179Z" fill="#FF637B"/>
<path d="M20 9.99996V10.2109C17.7617 9.37883 15.1094 9.34371 12.3437 10.1289C12.0391 9.28516 11.6875 8.46484 11.3125 7.66797C13.2344 6.94141 16.8321 5.2773 17.3359 3.27344C18.9649 5.04289 20 7.41008 20 9.99996Z" fill="#FF637B"/>
<path d="M11.2305 10.4805C10.8086 10.6328 10.3985 10.7969 10 10.9844V8.125C10.0703 8.1016 10.1406 8.07816 10.2109 8.05469C10.5859 8.83988 10.9257 9.64848 11.2305 10.4805Z" fill="#FA5E97"/>
<path d="M11.6172 11.582C12.4141 14.0898 12.8594 16.7734 12.9062 19.5273C11.9922 19.8086 11.0078 20 10 20V12.2851C10.5156 12.0273 11.0547 11.7812 11.6172 11.582Z" fill="#FA5E97"/>
<path d="M10.7734 6.61328C10.5273 6.15625 10.2695 5.69918 10 5.26559V0C12.2382 0 14.3242 0.789062 15.9883 2.04293C16.1172 2.13672 16.2461 2.23047 16.3633 2.34762L16.1992 2.99215C15.9414 4.0234 13.7618 5.49996 10.9024 6.56641L10.7734 6.61328Z" fill="#FA5E97"/>
<path d="M19.8945 11.4179C19.4023 14.8515 17.125 17.7226 14.0547 19.0937C13.9727 16.375 13.5039 13.7265 12.7188 11.2304C15.3438 10.5039 17.8321 10.5859 19.8945 11.4179Z" fill="#FA5E97"/>
<path d="M20 9.99996V10.2109C17.7617 9.37883 15.1094 9.34371 12.3437 10.1289C12.0391 9.28516 11.6875 8.46484 11.3125 7.66797C13.2344 6.94141 16.8321 5.2773 17.3359 3.27344C18.9649 5.04289 20 7.41008 20 9.99996Z" fill="#FA5E97"/>
</g>
<defs>
<clipPath id="clip0">
<rect width="20" height="20" fill="white"/>
</clipPath>
</defs>
</svg>
