<svg width="357" height="217" viewBox="0 0 357 217" fill="none" xmlns="http://www.w3.org/2000/svg">
<path fill-rule="evenodd" clip-rule="evenodd" d="M105.5 211C163.766 211 211 163.766 211 105.5C211 47.234 163.766 0 105.5 0C47.234 0 0 47.234 0 105.5C0 163.766 47.234 211 105.5 211Z" fill="#F8D31B" style="mix-blend-mode:multiply"/>
<path fill-rule="evenodd" clip-rule="evenodd" d="M222 181C257.346 181 286 152.346 286 117C286 81.6538 257.346 53 222 53C186.654 53 158 81.6538 158 117C158 152.346 186.654 181 222 181Z" fill="#F8D31B" style="mix-blend-mode:multiply"/>
<path fill-rule="evenodd" clip-rule="evenodd" d="M190 215C210.435 215 227 198.435 227 178C227 157.565 210.435 141 190 141C169.565 141 153 157.565 153 178C153 198.435 169.565 215 190 215Z" fill="#F8D31B" style="mix-blend-mode:multiply"/>
<path d="M190.5 151.5H351.503" stroke="#8E5803" stroke-linecap="square"/>
<path fill-rule="evenodd" clip-rule="evenodd" d="M352.5 156C354.985 156 357 153.985 357 151.5C357 149.015 354.985 147 352.5 147C350.015 147 348 149.015 348 151.5C348 153.985 350.015 156 352.5 156Z" fill="#F8D31B"/>
<path d="M79.1377 115H78.1611L75.5586 111.538L74.8115 112.202V115H73.9814V107.861H74.8115V111.401L78.0488 107.861H79.0303L76.1592 110.962L79.1377 115ZM83.6641 115V111.538C83.6641 111.102 83.5648 110.776 83.3662 110.562C83.1676 110.347 82.8568 110.239 82.4336 110.239C81.8737 110.239 81.4635 110.391 81.2031 110.693C80.9427 110.996 80.8125 111.496 80.8125 112.192V115H80.002V109.648H80.6611L80.793 110.381H80.832C80.998 110.117 81.2308 109.914 81.5303 109.771C81.8298 109.624 82.1634 109.551 82.5312 109.551C83.1758 109.551 83.6608 109.707 83.9863 110.02C84.3118 110.329 84.4746 110.825 84.4746 111.509V115H83.6641ZM90.7637 112.319C90.7637 113.192 90.5439 113.874 90.1045 114.365C89.665 114.854 89.0579 115.098 88.2832 115.098C87.8047 115.098 87.3799 114.985 87.0088 114.761C86.6377 114.536 86.3512 114.214 86.1494 113.794C85.9476 113.374 85.8467 112.882 85.8467 112.319C85.8467 111.447 86.0648 110.768 86.501 110.283C86.9372 109.795 87.5426 109.551 88.3174 109.551C89.0661 109.551 89.6602 109.8 90.0996 110.298C90.5423 110.796 90.7637 111.47 90.7637 112.319ZM86.6865 112.319C86.6865 113.003 86.8232 113.524 87.0967 113.882C87.3701 114.24 87.7721 114.419 88.3027 114.419C88.8333 114.419 89.2354 114.242 89.5088 113.887C89.7855 113.529 89.9238 113.006 89.9238 112.319C89.9238 111.639 89.7855 111.123 89.5088 110.771C89.2354 110.417 88.8301 110.239 88.293 110.239C87.7624 110.239 87.362 110.413 87.0918 110.762C86.8216 111.11 86.6865 111.629 86.6865 112.319ZM96.5596 115L95.5781 111.86C95.5163 111.668 95.4007 111.232 95.2314 110.552H95.1924C95.0622 111.121 94.9482 111.561 94.8506 111.87L93.8398 115H92.9023L91.4424 109.648H92.292C92.637 110.993 92.8991 112.017 93.0781 112.72C93.2604 113.423 93.3646 113.896 93.3906 114.141H93.4297C93.4655 113.955 93.5225 113.716 93.6006 113.423C93.682 113.127 93.752 112.892 93.8105 112.72L94.792 109.648H95.6709L96.6279 112.72C96.8102 113.28 96.9339 113.75 96.999 114.131H97.0381C97.0511 114.014 97.0853 113.833 97.1406 113.589C97.1992 113.345 97.5394 112.031 98.1611 109.648H99.001L97.5215 115H96.5596ZM100.783 115H99.9727V107.402H100.783V115ZM104.763 115.098C103.972 115.098 103.347 114.857 102.888 114.375C102.432 113.893 102.204 113.224 102.204 112.368C102.204 111.506 102.416 110.82 102.839 110.312C103.265 109.805 103.837 109.551 104.553 109.551C105.223 109.551 105.754 109.772 106.145 110.215C106.535 110.654 106.73 111.235 106.73 111.958V112.471H103.044C103.06 113.099 103.218 113.576 103.518 113.901C103.82 114.227 104.245 114.39 104.792 114.39C105.368 114.39 105.938 114.269 106.501 114.028V114.751C106.215 114.875 105.943 114.963 105.686 115.015C105.432 115.07 105.124 115.098 104.763 115.098ZM104.543 110.229C104.113 110.229 103.77 110.369 103.513 110.649C103.259 110.929 103.109 111.317 103.063 111.812H105.861C105.861 111.3 105.747 110.91 105.52 110.64C105.292 110.366 104.966 110.229 104.543 110.229ZM111.76 114.282H111.716C111.341 114.826 110.782 115.098 110.036 115.098C109.336 115.098 108.791 114.858 108.4 114.38C108.013 113.901 107.819 113.221 107.819 112.339C107.819 111.457 108.015 110.771 108.405 110.283C108.796 109.795 109.34 109.551 110.036 109.551C110.762 109.551 111.319 109.814 111.706 110.342H111.77L111.735 109.956L111.716 109.58V107.402H112.526V115H111.867L111.76 114.282ZM110.139 114.419C110.692 114.419 111.092 114.269 111.34 113.97C111.59 113.667 111.716 113.18 111.716 112.51V112.339C111.716 111.58 111.589 111.04 111.335 110.718C111.084 110.392 110.682 110.229 110.129 110.229C109.654 110.229 109.289 110.415 109.035 110.786C108.785 111.154 108.659 111.675 108.659 112.349C108.659 113.032 108.785 113.548 109.035 113.896C109.286 114.245 109.654 114.419 110.139 114.419ZM118.63 109.648V110.161L117.639 110.278C117.73 110.392 117.811 110.542 117.883 110.728C117.954 110.91 117.99 111.117 117.99 111.348C117.99 111.872 117.811 112.29 117.453 112.603C117.095 112.915 116.604 113.071 115.979 113.071C115.819 113.071 115.669 113.058 115.529 113.032C115.184 113.215 115.012 113.444 115.012 113.721C115.012 113.867 115.072 113.976 115.192 114.048C115.313 114.116 115.52 114.15 115.812 114.15H116.76C117.339 114.15 117.784 114.272 118.093 114.517C118.405 114.761 118.562 115.116 118.562 115.581C118.562 116.174 118.324 116.624 117.849 116.934C117.373 117.246 116.68 117.402 115.769 117.402C115.069 117.402 114.528 117.272 114.147 117.012C113.77 116.751 113.581 116.383 113.581 115.908C113.581 115.583 113.685 115.301 113.894 115.063C114.102 114.826 114.395 114.665 114.772 114.58C114.636 114.518 114.52 114.422 114.426 114.292C114.335 114.162 114.289 114.01 114.289 113.838C114.289 113.643 114.341 113.472 114.445 113.325C114.549 113.179 114.714 113.037 114.938 112.9C114.662 112.786 114.436 112.593 114.26 112.319C114.087 112.046 114.001 111.733 114.001 111.382C114.001 110.796 114.177 110.345 114.528 110.029C114.88 109.71 115.378 109.551 116.022 109.551C116.302 109.551 116.555 109.583 116.779 109.648H118.63ZM114.362 115.898C114.362 116.188 114.484 116.408 114.729 116.558C114.973 116.707 115.323 116.782 115.778 116.782C116.459 116.782 116.962 116.68 117.287 116.475C117.616 116.273 117.78 115.998 117.78 115.649C117.78 115.36 117.691 115.158 117.512 115.044C117.333 114.933 116.996 114.878 116.501 114.878H115.529C115.161 114.878 114.875 114.966 114.67 115.142C114.465 115.317 114.362 115.57 114.362 115.898ZM114.802 111.362C114.802 111.737 114.908 112.02 115.119 112.212C115.331 112.404 115.625 112.5 116.003 112.5C116.794 112.5 117.189 112.116 117.189 111.348C117.189 110.544 116.789 110.142 115.988 110.142C115.607 110.142 115.314 110.244 115.109 110.449C114.904 110.654 114.802 110.959 114.802 111.362ZM121.989 115.098C121.198 115.098 120.573 114.857 120.114 114.375C119.659 113.893 119.431 113.224 119.431 112.368C119.431 111.506 119.642 110.82 120.065 110.312C120.492 109.805 121.063 109.551 121.779 109.551C122.45 109.551 122.98 109.772 123.371 110.215C123.762 110.654 123.957 111.235 123.957 111.958V112.471H120.271C120.287 113.099 120.445 113.576 120.744 113.901C121.047 114.227 121.472 114.39 122.019 114.39C122.595 114.39 123.164 114.269 123.728 114.028V114.751C123.441 114.875 123.169 114.963 122.912 115.015C122.658 115.07 122.351 115.098 121.989 115.098ZM121.77 110.229C121.34 110.229 120.996 110.369 120.739 110.649C120.485 110.929 120.336 111.317 120.29 111.812H123.088C123.088 111.3 122.974 110.91 122.746 110.64C122.518 110.366 122.193 110.229 121.77 110.229Z" fill="black"/>
<path d="M226.01 118.101C226.01 118.729 225.782 119.219 225.326 119.57C224.87 119.922 224.252 120.098 223.471 120.098C222.624 120.098 221.973 119.989 221.518 119.771V118.97C221.811 119.093 222.13 119.191 222.475 119.263C222.82 119.334 223.161 119.37 223.5 119.37C224.053 119.37 224.47 119.266 224.75 119.058C225.03 118.846 225.17 118.553 225.17 118.179C225.17 117.931 225.119 117.729 225.019 117.573C224.921 117.414 224.755 117.267 224.521 117.134C224.289 117 223.936 116.849 223.461 116.68C222.797 116.442 222.322 116.16 222.035 115.835C221.752 115.509 221.61 115.085 221.61 114.561C221.61 114.01 221.817 113.573 222.23 113.247C222.644 112.922 223.191 112.759 223.871 112.759C224.581 112.759 225.233 112.889 225.829 113.149L225.57 113.872C224.981 113.625 224.408 113.501 223.852 113.501C223.412 113.501 223.069 113.595 222.821 113.784C222.574 113.973 222.45 114.235 222.45 114.57C222.45 114.818 222.496 115.021 222.587 115.181C222.678 115.337 222.831 115.482 223.046 115.615C223.264 115.745 223.596 115.89 224.042 116.05C224.791 116.317 225.305 116.603 225.585 116.909C225.868 117.215 226.01 117.612 226.01 118.101ZM228.148 117.261C228.288 117.062 228.502 116.802 228.788 116.479L230.517 114.648H231.479L229.311 116.929L231.63 120H230.648L228.759 117.471L228.148 117.998V120H227.348V112.402H228.148V116.431C228.148 116.61 228.135 116.886 228.109 117.261H228.148ZM233.412 120H232.602V114.648H233.412V120ZM232.533 113.198C232.533 113.013 232.579 112.878 232.67 112.793C232.761 112.705 232.875 112.661 233.012 112.661C233.142 112.661 233.254 112.705 233.349 112.793C233.443 112.881 233.49 113.016 233.49 113.198C233.49 113.381 233.443 113.517 233.349 113.608C233.254 113.696 233.142 113.74 233.012 113.74C232.875 113.74 232.761 113.696 232.67 113.608C232.579 113.517 232.533 113.381 232.533 113.198ZM235.941 120H235.131V112.402H235.941V120ZM238.471 120H237.66V112.402H238.471V120ZM243.642 118.54C243.642 119.038 243.456 119.422 243.085 119.692C242.714 119.963 242.193 120.098 241.522 120.098C240.813 120.098 240.259 119.985 239.862 119.761V119.009C240.119 119.139 240.395 119.242 240.688 119.316C240.984 119.391 241.269 119.429 241.542 119.429C241.965 119.429 242.291 119.362 242.519 119.229C242.746 119.092 242.86 118.885 242.86 118.608C242.86 118.4 242.769 118.223 242.587 118.076C242.408 117.926 242.056 117.751 241.532 117.549C241.034 117.363 240.679 117.202 240.468 117.065C240.259 116.925 240.103 116.768 239.999 116.592C239.898 116.416 239.848 116.206 239.848 115.962C239.848 115.526 240.025 115.182 240.38 114.932C240.735 114.678 241.221 114.551 241.84 114.551C242.416 114.551 242.979 114.668 243.529 114.902L243.241 115.562C242.704 115.34 242.217 115.229 241.781 115.229C241.397 115.229 241.107 115.29 240.912 115.41C240.717 115.531 240.619 115.697 240.619 115.908C240.619 116.051 240.655 116.174 240.727 116.274C240.801 116.375 240.92 116.471 241.083 116.562C241.246 116.654 241.558 116.785 242.021 116.958C242.655 117.189 243.083 117.422 243.305 117.656C243.529 117.891 243.642 118.185 243.642 118.54Z" fill="black"/>
<path d="M182.179 193H181.349V186.599H179.088V185.861H184.439V186.599H182.179V193ZM190.016 190.319C190.016 191.192 189.796 191.874 189.356 192.365C188.917 192.854 188.31 193.098 187.535 193.098C187.057 193.098 186.632 192.985 186.261 192.761C185.89 192.536 185.603 192.214 185.401 191.794C185.2 191.374 185.099 190.882 185.099 190.319C185.099 189.447 185.317 188.768 185.753 188.283C186.189 187.795 186.795 187.551 187.569 187.551C188.318 187.551 188.912 187.8 189.352 188.298C189.794 188.796 190.016 189.47 190.016 190.319ZM185.938 190.319C185.938 191.003 186.075 191.524 186.349 191.882C186.622 192.24 187.024 192.419 187.555 192.419C188.085 192.419 188.487 192.242 188.761 191.887C189.037 191.529 189.176 191.006 189.176 190.319C189.176 189.639 189.037 189.123 188.761 188.771C188.487 188.417 188.082 188.239 187.545 188.239C187.014 188.239 186.614 188.413 186.344 188.762C186.074 189.11 185.938 189.629 185.938 190.319ZM196.061 190.319C196.061 191.192 195.841 191.874 195.401 192.365C194.962 192.854 194.355 193.098 193.58 193.098C193.102 193.098 192.677 192.985 192.306 192.761C191.935 192.536 191.648 192.214 191.446 191.794C191.244 191.374 191.144 190.882 191.144 190.319C191.144 189.447 191.362 188.768 191.798 188.283C192.234 187.795 192.84 187.551 193.614 187.551C194.363 187.551 194.957 187.8 195.396 188.298C195.839 188.796 196.061 189.47 196.061 190.319ZM191.983 190.319C191.983 191.003 192.12 191.524 192.394 191.882C192.667 192.24 193.069 192.419 193.6 192.419C194.13 192.419 194.532 192.242 194.806 191.887C195.082 191.529 195.221 191.006 195.221 190.319C195.221 189.639 195.082 189.123 194.806 188.771C194.532 188.417 194.127 188.239 193.59 188.239C193.059 188.239 192.659 188.413 192.389 188.762C192.118 189.11 191.983 189.629 191.983 190.319ZM198.297 193H197.486V185.402H198.297V193ZM203.468 191.54C203.468 192.038 203.282 192.422 202.911 192.692C202.54 192.963 202.019 193.098 201.349 193.098C200.639 193.098 200.086 192.985 199.688 192.761V192.009C199.946 192.139 200.221 192.242 200.514 192.316C200.81 192.391 201.095 192.429 201.368 192.429C201.791 192.429 202.117 192.362 202.345 192.229C202.573 192.092 202.687 191.885 202.687 191.608C202.687 191.4 202.595 191.223 202.413 191.076C202.234 190.926 201.882 190.751 201.358 190.549C200.86 190.363 200.506 190.202 200.294 190.065C200.086 189.925 199.929 189.768 199.825 189.592C199.724 189.416 199.674 189.206 199.674 188.962C199.674 188.526 199.851 188.182 200.206 187.932C200.561 187.678 201.048 187.551 201.666 187.551C202.242 187.551 202.805 187.668 203.355 187.902L203.067 188.562C202.53 188.34 202.044 188.229 201.607 188.229C201.223 188.229 200.934 188.29 200.738 188.41C200.543 188.531 200.445 188.697 200.445 188.908C200.445 189.051 200.481 189.174 200.553 189.274C200.628 189.375 200.746 189.471 200.909 189.562C201.072 189.654 201.384 189.785 201.847 189.958C202.481 190.189 202.91 190.422 203.131 190.656C203.355 190.891 203.468 191.185 203.468 191.54Z" fill="black"/>
</svg>
