<svg width="40" height="40" viewBox="0 0 40 40" fill="none" xmlns="http://www.w3.org/2000/svg">
<path d="M20 40C31.0457 40 40 31.0457 40 20C40 8.9543 31.0457 0 20 0C8.9543 0 0 8.9543 0 20C0 31.0457 8.9543 40 20 40Z" fill="#D22215"/>
<path d="M30.0669 13.3077C29.4671 13.4908 28.8417 13.6481 28.2154 13.8047C23.771 14.7474 17.845 12.1885 15.2861 16.3636C13.152 19.6834 12.4781 23.8377 10.0504 26.806L23.0178 39.7734C31.6483 38.4672 38.4689 31.6456 39.7738 23.0148L30.0669 13.3077Z" fill="#A81411"/>
<path d="M26.6913 11.901H13.3086C10.683 11.901 8.55457 14.0295 8.55457 16.6551V23.3451C8.55457 25.9707 10.6831 28.0992 13.3086 28.0992H26.6913C29.3169 28.0992 31.4454 25.9706 31.4454 23.3451V16.6551C31.4454 14.0295 29.3168 11.901 26.6913 11.901ZM23.4761 20.3255L17.2167 23.3109C17.0498 23.3905 16.8571 23.269 16.8571 23.0842V16.9269C16.8571 16.7394 17.0549 16.6179 17.2219 16.7027L23.4813 19.8746C23.6677 19.9689 23.6643 20.2359 23.4761 20.3255Z" fill="white"/>
<path d="M26.6914 11.901H19.8654V18.042L23.4815 19.8745C23.6678 19.9688 23.6644 20.2357 23.4761 20.3255L19.8654 22.0477V28.0992H26.6914C29.317 28.0992 31.4454 25.9706 31.4454 23.3451V16.6551C31.4454 14.0295 29.3169 11.901 26.6914 11.901Z" fill="#D1D1D1"/>
</svg>
