<svg width="64" height="64" viewBox="0 0 64 64" fill="none" xmlns="http://www.w3.org/2000/svg">
<g clip-path="url(#clip0)">
<path d="M15.9872 59.7059C6.42966 54.173 0 43.8368 0 31.9989C0 14.3302 14.3233 0.00683594 31.9921 0.00683594C49.6608 0.00683594 63.9841 14.3302 63.9841 31.9989C63.9841 49.6676 49.6608 63.991 31.9921 63.991C31.1846 63.991 30.3842 63.9611 29.5919 63.9022L15.9872 59.7059Z" fill="#7584F2"/>
<path d="M64 32.0028C64 30.8212 63.9359 29.6546 63.8111 28.5063L49.3314 14.0266L44.3805 23.2792L36.5571 15.4558L27.1688 31.6996L25.0828 29.6136L24.6435 35.8678L20.0286 31.253L19.1562 36.9974L15.7691 33.6103L14.5625 52.3603L24.5477 62.3455L29.6077 63.9062C30.4001 63.965 31.2004 63.995 32.0078 63.995C49.6767 63.9948 64 49.6714 64 32.0028Z" fill="#4855B7"/>
<path d="M22.7668 19.8213C22.7668 15.6352 26.1604 12.2417 30.3466 12.2417C33.543 12.2417 36.2774 14.2176 37.3916 17.0169C38.5058 14.2176 41.2401 12.2417 44.4367 12.2417C48.6228 12.2417 52.0165 15.6352 52.0165 19.8213C52.0165 30.1896 37.3917 37.1595 37.3917 37.1595C37.3917 37.1595 22.7668 29.6864 22.7668 19.8213Z" fill="#FF8FB8"/>
<path d="M44.4364 12.2416C41.24 12.2416 38.5055 14.2175 37.3913 17.0168C37.3912 17.0166 37.3913 17.0164 37.3913 17.0163V37.1593V37.1594C37.3913 37.1594 52.016 30.1896 52.016 19.8212C52.0162 15.6351 48.6226 12.2416 44.4364 12.2416Z" fill="#FF5F96"/>
<path d="M30.6335 34.3637C29.3916 34.3225 28.3751 35.3166 28.3751 36.5459C28.3751 36.5459 28.3723 44.472 28.3707 44.4737L27.014 43.7709C27.0155 43.7691 27.0179 36.4698 27.0179 36.4698C27.0179 36.4172 27.0193 36.365 27.022 36.313C27.0916 34.9925 28.1784 33.4993 29.5909 33.2833C29.5945 33.2826 30.4457 33.2833 30.4457 33.2833V21.1723C30.4457 20.0238 29.5145 19.0927 28.3661 19.0927C27.2175 19.0927 26.2865 20.0238 26.2865 21.1723V34.0843H25.4978V30.9015C25.4978 29.7739 24.6209 28.8134 23.494 28.7734C22.311 28.7313 21.3386 29.6779 21.3386 30.8516V35.0322H20.6844V32.7226C20.6844 31.6414 19.8078 30.7649 18.7266 30.7649C17.6454 30.7649 16.7688 31.6414 16.7688 32.7226V36.2171H16.1146V34.6562C16.1146 33.7249 15.3526 32.9341 14.4214 32.9515C13.5185 32.9683 12.7917 33.7056 12.7917 34.6125V36.0191V44.3589V48.5905H12.8176C13.0018 50.6752 14.219 52.4626 15.9538 53.4386C15.9553 53.4394 15.9562 53.441 15.9562 53.4426V59.6862C20.0191 62.0444 24.6488 63.5339 29.5909 63.9005C29.5909 59.0962 29.5909 53.7254 29.5909 53.7254C29.5909 53.7236 29.592 53.7219 29.5935 53.7212C31.4467 52.893 32.7419 51.0335 32.7419 48.876V36.5972C32.7419 35.4118 31.8184 34.4031 30.6335 34.3637Z" fill="#FFDECF"/>
<path d="M30.6335 34.3637C29.3916 34.3225 28.3751 35.3166 28.3751 36.5459C28.3751 36.5459 28.3723 44.472 28.3707 44.4737L27.014 43.7709C27.0155 43.7692 27.0179 36.4698 27.0179 36.4698C27.0179 36.4172 27.0193 36.365 27.022 36.313C27.0916 34.9925 28.1784 33.4993 29.5909 33.2833C29.5945 33.2826 30.4457 33.2833 30.4457 33.2833V21.1723C30.4457 20.0238 29.5145 19.0927 28.3661 19.0927C27.2175 19.0927 26.2865 20.0238 26.2865 21.1723V34.0843H25.4978V30.9015C25.4978 29.7739 24.6209 28.8134 23.494 28.7734C22.311 28.7313 21.3386 29.6779 21.3386 30.8516V35.0322H20.9724V62.0384C23.6916 63.0361 26.5829 63.6775 29.5909 63.9007C29.5909 59.0963 29.5909 53.7256 29.5909 53.7256C29.5909 53.7237 29.592 53.7221 29.5935 53.7213C31.4467 52.893 32.7419 51.0335 32.7419 48.876V36.5972C32.7419 35.4119 31.8183 34.4031 30.6335 34.3637Z" fill="#FFBEAA"/>
</g>
<defs>
<clipPath id="clip0">
<rect width="64" height="64" fill="white"/>
</clipPath>
</defs>
</svg>
