<svg width="64" height="64" viewBox="0 0 64 64" fill="none" xmlns="http://www.w3.org/2000/svg">
<path d="M32 64C49.6731 64 64 49.6731 64 32C64 14.3269 49.6731 0 32 0C14.3269 0 0 14.3269 0 32C0 49.6731 14.3269 64 32 64Z" fill="#B6E1F7"/>
<path d="M64 32C64 31.1249 63.9635 30.2582 63.8945 29.4009L49.5518 15.0581C45.1152 10.4629 38.8919 7.60413 32 7.60413C18.5265 7.60413 7.60413 18.5265 7.60413 32C7.60413 38.8918 10.4629 45.1151 15.0579 49.5516L29.4007 63.8945C30.2582 63.9635 31.1249 64 32 64C49.6731 64 64 49.6731 64 32Z" fill="#7FC8F1"/>
<path d="M32 7.60413C18.5265 7.60413 7.60413 18.5265 7.60413 32C7.60413 45.4735 18.5265 56.3959 32 56.3959C45.4735 56.3959 56.3959 45.4735 56.3959 32C56.3959 18.5265 45.4735 7.60413 32 7.60413ZM32 40.221C27.4598 40.221 23.779 36.5404 23.779 32C23.779 27.4596 27.4596 23.779 32 23.779C36.5404 23.779 40.221 27.4596 40.221 32C40.221 36.5404 36.5404 40.221 32 40.221Z" fill="#FFB84D"/>
<path d="M31.9996 7.60413V23.7791C36.5409 23.7791 40.2209 27.4591 40.2209 32.0004C40.2209 36.5404 36.5409 40.2204 31.9996 40.2204V56.3954C45.4734 56.3954 56.3959 45.4729 56.3959 32.0004C56.3959 18.5267 45.4733 7.60413 31.9996 7.60413Z" fill="#FF8900"/>
<path d="M53.4139 32C53.4139 30.3778 52.7774 28.9048 51.7409 27.8158C51.0273 27.0662 50.7277 26.0287 50.9317 25.0141C51.2279 23.5401 50.9809 21.9545 50.1161 20.5822C49.4384 19.5071 48.4792 18.7181 47.3946 18.2494C46.6571 17.9307 46.0695 17.3432 45.7509 16.6058C45.2822 15.5213 44.4932 14.5619 43.4182 13.8843C42.0458 13.0193 40.4603 12.7723 38.9863 13.0687C37.9717 13.2727 36.9342 12.9729 36.1844 12.2594C35.0954 11.2229 33.6224 10.5864 32.0002 10.5864C30.3779 10.5864 28.9049 11.2229 27.8159 12.2594C27.0663 12.9731 26.0288 13.2727 25.0141 13.0687C23.5401 12.7724 21.9545 13.0194 20.5822 13.8843C19.5071 14.5619 18.7181 15.5212 18.2494 16.6058C17.9307 17.3433 17.3432 17.9308 16.6058 18.2494C15.5213 18.7182 14.5619 19.5072 13.8843 20.5822C13.0193 21.9545 12.7723 23.5401 13.0687 25.0141C13.2727 26.0287 12.9729 27.0662 12.2594 27.8158C11.2228 28.9048 10.5864 30.3778 10.5864 32C10.5864 33.6223 11.2229 35.0953 12.2594 36.1843C12.9729 36.9339 13.2727 37.9714 13.0687 38.986C12.7724 40.46 13.0193 42.0455 13.8843 43.4179C14.5619 44.4929 15.5212 45.2821 16.6058 45.7507C17.3433 46.0694 17.9308 46.6569 18.2494 47.3943C18.7182 48.4788 19.5072 49.4382 20.5822 50.1158C21.9545 50.9808 23.5401 51.2278 25.0141 50.9314C26.0287 50.7274 27.0662 51.0272 27.8159 51.7407C28.9049 52.7773 30.3779 53.4137 32.0002 53.4137C33.6224 53.4137 35.0954 52.7772 36.1844 51.7407C36.934 51.027 37.9716 50.7274 38.9863 50.9314C40.4603 51.2277 42.0458 50.9807 43.4182 50.1158C44.4933 49.4382 45.2823 48.4789 45.7509 47.3943C46.0697 46.6568 46.6572 46.0693 47.3946 45.7507C48.479 45.2819 49.4384 44.4929 50.1161 43.4179C50.9811 42.0455 51.2281 40.46 50.9317 38.986C50.7277 37.9714 51.0274 36.9339 51.7409 36.1843C52.7774 35.0953 53.4139 33.6223 53.4139 32ZM32 42.1851C26.375 42.1851 21.8151 37.625 21.8151 32C21.8151 26.375 26.375 21.8151 32 21.8151C37.625 21.8151 42.1851 26.375 42.1851 32C42.1851 37.625 37.625 42.1851 32 42.1851Z" fill="#FF127F"/>
<path d="M53.4133 32.0004C53.4133 30.3779 52.777 28.9042 51.7408 27.8154C51.027 27.0667 50.727 26.0292 50.932 25.0142C51.2283 23.5404 50.9808 21.9542 50.1158 20.5817C49.4383 19.5067 48.4795 18.7179 47.3945 18.2492C46.657 17.9304 46.0695 17.3429 45.7508 16.6054C45.282 15.5204 44.4933 14.5617 43.4183 13.8842C42.0458 13.0192 40.4595 12.7717 38.9858 13.0679C37.9708 13.2729 36.9333 12.9729 36.1845 12.2592C35.0958 11.2229 33.622 10.5867 31.9995 10.5867V21.8154C37.6245 21.8154 42.1845 26.3754 42.1845 32.0004C42.1845 37.6254 37.6245 42.1854 31.9995 42.1854V53.4142C33.622 53.4142 35.0958 52.7779 36.1845 51.7404C36.9333 51.0267 37.9708 50.7279 38.9858 50.9317C40.4595 51.2279 42.0458 50.9804 43.4183 50.1154C44.4933 49.4379 45.282 48.4792 45.7508 47.3942C46.0695 46.6567 46.657 46.0692 47.3945 45.7504C48.4795 45.2817 49.4383 44.4929 50.1158 43.4179C50.9808 42.0454 51.2283 40.4604 50.932 38.9854C50.727 37.9717 51.027 36.9342 51.7408 36.1842C52.777 35.0954 53.4133 33.6218 53.4133 32.0004Z" fill="#B10853"/>
<path d="M29.8721 17.6722L30.9956 18.7957L34.1272 15.6641L33.0037 14.5406L29.8721 17.6722Z" fill="white"/>
<path d="M34.1271 15.6642L31.9996 17.7916V15.5455L33.0045 14.5405L34.1271 15.6642Z" fill="#FFEC97"/>
<path d="M29.8721 48.3359L30.9956 49.4594L34.1272 46.3278L33.0037 45.2043L29.8721 48.3359Z" fill="white"/>
<path d="M34.1271 46.3281L31.9996 48.4556V46.2093L33.0045 45.2043L34.1271 46.3281Z" fill="#FFEC97"/>
<path d="M46.3291 29.8731L45.2056 30.9966L48.3371 34.1281L49.4606 33.0047L46.3291 29.8731Z" fill="#FFEC97"/>
<path d="M15.6641 29.873L14.5406 30.9965L17.6722 34.128L18.7957 33.0045L15.6641 29.873Z" fill="white"/>
<path d="M23.3725 20.3638H18.9437V21.9526H23.3725V20.3638Z" fill="#B6EFAB"/>
<path d="M45.0562 42.0475H40.6274V43.6364H45.0562V42.0475Z" fill="#2AD827"/>
<path d="M21.9526 40.6274H20.3638V45.0562H21.9526V40.6274Z" fill="#B6EFAB"/>
<path d="M43.6364 18.9437H42.0475V23.3725H43.6364V18.9437Z" fill="#2AD827"/>
</svg>
