<svg width="115" height="32" viewBox="0 0 115 32" fill="none" xmlns="http://www.w3.org/2000/svg">
<path d="M44.9375 22H51.7841C54.9446 22 56.8977 20.2741 56.8977 17.8807C56.8977 15.8281 55.3849 14.4858 53.517 14.4148V14.2727C55.2003 13.9389 56.3295 12.696 56.3295 11.0909C56.3295 8.875 54.5682 7.45455 51.2443 7.45455H44.9375V22ZM48.8864 18.8466V15.7784H50.7898C51.9901 15.7784 52.7216 16.3466 52.7216 17.3693C52.7216 18.3423 52.0611 18.8466 50.733 18.8466H48.8864ZM48.8864 13.3352V10.5511H50.5625C51.5426 10.5511 52.267 11.0483 52.267 11.9432C52.267 12.8381 51.5426 13.3352 50.5057 13.3352H48.8864ZM63.6094 22.1989C67.1605 22.1989 69.2628 19.9261 69.2628 16.5739C69.2628 13.2216 67.1605 10.9489 63.6094 10.9489C60.0582 10.9489 57.956 13.2216 57.956 16.5739C57.956 19.9261 60.0582 22.1989 63.6094 22.1989ZM63.6378 19.3011C62.5866 19.3011 61.9616 18.2571 61.9616 16.5455C61.9616 14.8338 62.5866 13.7898 63.6378 13.7898C64.6321 13.7898 65.2571 14.8338 65.2571 16.5455C65.2571 18.2571 64.6321 19.3011 63.6378 19.3011ZM70.7969 22H74.6889V20.2102H74.7741C75.2287 21.3182 76.2798 22.142 77.8139 22.142C80.1435 22.142 82.1037 20.3239 82.1037 16.5455C82.1037 12.5966 80.0014 10.9489 77.8423 10.9489C76.223 10.9489 75.2003 11.8864 74.7741 12.9943H74.7173V7.45455H70.7969V22ZM74.6321 16.5455C74.6321 14.9261 75.2855 13.9602 76.3651 13.9602C77.4446 13.9602 78.0696 14.9261 78.0696 16.5455C78.0696 18.1648 77.4446 19.1307 76.3651 19.1307C75.2855 19.1307 74.6321 18.1364 74.6321 16.5455ZM89 22.1989C92.5511 22.1989 94.6534 19.9261 94.6534 16.5739C94.6534 13.2216 92.5511 10.9489 89 10.9489C85.4489 10.9489 83.3466 13.2216 83.3466 16.5739C83.3466 19.9261 85.4489 22.1989 89 22.1989ZM89.0284 19.3011C87.9773 19.3011 87.3523 18.2571 87.3523 16.5455C87.3523 14.8338 87.9773 13.7898 89.0284 13.7898C90.0227 13.7898 90.6477 14.8338 90.6477 16.5455C90.6477 18.2571 90.0227 19.3011 89.0284 19.3011ZM96.2443 22H100.165V15.6364C100.165 14.6847 100.662 14.1023 101.472 14.1023C102.281 14.1023 102.807 14.6847 102.807 15.6364V22H106.557V15.6364C106.557 14.6847 107.054 14.1023 107.864 14.1023C108.673 14.1023 109.199 14.6847 109.199 15.6364V22H113.119V14.642C113.119 12.4048 111.685 10.9489 109.597 10.9489C107.977 10.9489 106.67 11.8295 106.301 13.1648H106.188C105.96 11.8295 104.739 10.9489 103.205 10.9489C101.692 10.9489 100.534 11.8011 100.08 13.1648H99.9659V11.0909H96.2443V22Z" fill="white"/>
<g clip-path="url(#clip0)">
<path d="M25.2963 29.0024C29.3497 26.1022 31.9914 21.3551 31.9914 15.991C31.9914 7.16117 24.8334 0.00317383 16.0036 0.00317383C7.17381 0.00317383 0.0158081 7.16111 0.0158081 15.9909C0.0158081 28.2205 13.2051 35.8755 23.7942 29.9555L25.2963 29.0024ZM16.0036 21.8638C12.7602 21.8638 10.1309 19.2344 10.1309 15.991C10.1309 12.7476 12.7602 10.1183 16.0036 10.1183C19.247 10.1183 21.8764 12.7476 21.8764 15.991C21.8764 19.2344 19.2471 21.8638 16.0036 21.8638Z" fill="#FFC373"/>
<path d="M1.97118 15.9908C1.97118 7.48947 8.607 0.539036 16.9814 0.0335989C7.73418 -0.524214 0.0158081 6.81741 0.0158081 15.9908C0.0158081 25.1582 7.72881 32.5089 16.9879 31.9485C8.61037 31.4463 1.97118 24.4945 1.97118 15.9908Z" fill="#EF9A4D"/>
<path d="M19.0782 26.829C19.513 27.1114 20.111 27.5149 20.8335 27.4094C21.4932 27.3472 21.5917 27.2078 24.1973 25.5148C24.5039 25.3338 25.4111 24.9189 26.4389 25.5866L26.4391 25.5867L27.9761 26.5852C30.474 23.7644 31.9914 20.0552 31.9914 15.9909C31.9914 7.16105 24.8334 0.00305176 16.0036 0.00305176C7.17375 0.00305176 0.0157471 7.16105 0.0157471 15.9909C0.0157471 20.0551 1.53312 23.7644 4.03112 26.5852L5.56806 25.5867L5.56818 25.5866C6.59593 24.9189 7.50312 25.3337 7.80993 25.5148C9.48168 26.6011 8.91943 26.2358 10.2831 27.1217C10.6452 27.334 11.0551 27.4095 11.1762 27.4095C12.116 27.5026 12.5459 27.0777 14.8409 25.5867C14.9193 25.5083 15.9747 24.8125 17.1661 25.5865L17.1662 25.5867L17.5324 25.8489L19.0782 26.829ZM16.0036 21.8638C12.7602 21.8638 10.1309 19.2344 10.1309 15.991C10.1309 12.7476 12.7602 10.1183 16.0036 10.1183C19.247 10.1183 21.8764 12.7476 21.8764 15.991C21.8764 19.2344 19.2471 21.8638 16.0036 21.8638Z" fill="#FC3842"/>
<path d="M19.8243 20.4491C22.3871 22.8513 25.8031 24.354 29.5694 24.4519C35.6098 14.7902 29.8189 1.98488 18.5166 0.200317C16.2473 2.95194 15.0076 6.45982 15.1449 10.1814C18.7118 9.65844 21.8765 12.4228 21.8765 15.9909C21.8764 17.775 21.0799 19.372 19.8243 20.4491Z" fill="#FC5162"/>
<path d="M0.966252 21.432C1.89556 24.0086 3.14225 25.5044 4.03119 26.5853L5.30288 25.7591C3.21456 23.0577 1.97119 19.6698 1.97119 15.991C1.97113 7.48961 8.60694 0.539236 16.9813 0.0337988C16.9199 0.0267988 16.3901 0.00317383 16.0036 0.00317383C4.88082 0.00311133 -2.79375 11.0758 0.966252 21.432Z" fill="#EF2235"/>
<path d="M12.2563 6.94986C12.7845 6.94986 13.2126 6.5217 13.2126 5.99354C13.2126 5.46539 12.7845 5.03723 12.2563 5.03723C11.7281 5.03723 11.3 5.46539 11.3 5.99354C11.3 6.5217 11.7281 6.94986 12.2563 6.94986Z" fill="#2EBB4E"/>
<path d="M8.51228 22.3676C9.04047 22.3676 9.46866 21.9394 9.46866 21.4112C9.46866 20.883 9.04047 20.4548 8.51228 20.4548C7.98409 20.4548 7.55591 20.883 7.55591 21.4112C7.55591 21.9394 7.98409 22.3676 8.51228 22.3676Z" fill="#2EBB4E"/>
<path d="M26.3162 10.7989C26.8443 10.7989 27.2725 10.3707 27.2725 9.84254C27.2725 9.31439 26.8443 8.88623 26.3162 8.88623C25.788 8.88623 25.3599 9.31439 25.3599 9.84254C25.3599 10.3707 25.788 10.7989 26.3162 10.7989Z" fill="#FFCC00"/>
<path d="M21.1433 23.9915C21.6715 23.9915 22.0996 23.5633 22.0996 23.0351C22.0996 22.5069 21.6715 22.0787 21.1433 22.0787C20.6151 22.0787 20.1869 22.5069 20.1869 23.0351C20.1869 23.5633 20.6151 23.9915 21.1433 23.9915Z" fill="#FFCC00"/>
<path d="M27.2724 18.9021C27.8005 18.9021 28.2287 18.474 28.2287 17.9458C28.2287 17.4177 27.8005 16.9895 27.2724 16.9895C26.7442 16.9895 26.316 17.4177 26.316 17.9458C26.316 18.474 26.7442 18.9021 27.2724 18.9021Z" fill="#57BAE5"/>
<path d="M18.6901 7.90603C19.2183 7.90603 19.6464 7.4779 19.6464 6.94978C19.6464 6.42166 19.2183 5.99353 18.6901 5.99353C18.162 5.99353 17.7339 6.42166 17.7339 6.94978C17.7339 7.4779 18.162 7.90603 18.6901 7.90603Z" fill="#57BAE5"/>
<path d="M6.17598 17.6961C6.70413 17.6961 7.13229 17.2679 7.13229 16.7398C7.13229 16.2116 6.70413 15.7834 6.17598 15.7834C5.64782 15.7834 5.21967 16.2116 5.21967 16.7398C5.21967 17.2679 5.64782 17.6961 6.17598 17.6961Z" fill="#57BAE5"/>
<path d="M23.1262 10.1247C23.5 10.1247 23.8031 9.82167 23.8031 9.44781C23.8031 9.07395 23.5 8.77087 23.1262 8.77087C22.7523 8.77087 22.4492 9.07395 22.4492 9.44781C22.4492 9.82167 22.7523 10.1247 23.1262 10.1247Z" fill="#ECF1F8"/>
<path d="M6.1759 9.55334C6.5498 9.55334 6.8529 9.25024 6.8529 8.87634C6.8529 8.50244 6.5498 8.19934 6.1759 8.19934C5.802 8.19934 5.4989 8.50244 5.4989 8.87634C5.4989 9.25024 5.802 9.55334 6.1759 9.55334Z" fill="#FFC373"/>
<path d="M3.2525 19.0498C3.6264 19.0498 3.9295 18.7467 3.9295 18.3728C3.9295 17.9989 3.6264 17.6958 3.2525 17.6958C2.8786 17.6958 2.5755 17.9989 2.5755 18.3728C2.5755 18.7467 2.8786 19.0498 3.2525 19.0498Z" fill="#F9D58C"/>
<path d="M15.3265 5.23339C15.7004 5.23339 16.0035 4.93029 16.0035 4.55639C16.0035 4.1825 15.7004 3.87939 15.3265 3.87939C14.9526 3.87939 14.6495 4.1825 14.6495 4.55639C14.6495 4.93029 14.9526 5.23339 15.3265 5.23339Z" fill="#ECF1F8"/>
<path d="M24.48 22.0869C24.8539 22.0869 25.157 21.7838 25.157 21.4099C25.157 21.036 24.8539 20.7329 24.48 20.7329C24.1061 20.7329 23.803 21.036 23.803 21.4099C23.803 21.7838 24.1061 22.0869 24.48 22.0869Z" fill="#F9D58C"/>
<path d="M10.6225 24.3889C10.9964 24.3889 11.2995 24.0858 11.2995 23.7119C11.2995 23.338 10.9964 23.0349 10.6225 23.0349C10.2486 23.0349 9.9455 23.338 9.9455 23.7119C9.9455 24.0858 10.2486 24.3889 10.6225 24.3889Z" fill="#ECF1F8"/>
<path d="M27.712 14.3878C28.0859 14.3878 28.389 14.0847 28.389 13.7108C28.389 13.3369 28.0859 13.0338 27.712 13.0338C27.3381 13.0338 27.035 13.3369 27.035 13.7108C27.035 14.0847 27.3381 14.3878 27.712 14.3878Z" fill="#FFC373"/>
<path d="M24.0516 14.4035L23.111 13.9618C22.8504 13.8394 22.7383 13.5289 22.8606 13.2682C22.983 13.0076 23.2936 12.8956 23.5542 13.0179L24.4948 13.4596C24.7554 13.5819 24.8675 13.8925 24.7452 14.1531C24.6231 14.4129 24.3134 14.5261 24.0516 14.4035Z" fill="#57BAE5"/>
<path d="M5.16342 13.5057L4.22279 13.064C3.9621 12.9416 3.85016 12.6311 3.97241 12.3705C4.09485 12.1098 4.40542 11.998 4.66598 12.1201L5.60661 12.5618C5.86729 12.6842 5.97929 12.9947 5.85698 13.2553C5.73461 13.5155 5.42479 13.6281 5.16342 13.5057Z" fill="#FFCC00"/>
<path d="M20.9218 5.02829L19.9812 4.58666C19.7205 4.46423 19.6085 4.15373 19.7308 3.8931C19.8532 3.63248 20.1638 3.52054 20.4243 3.64273L21.3649 4.08441C21.6256 4.20685 21.7376 4.51729 21.6153 4.77791C21.493 5.03822 21.1829 5.15085 20.9218 5.02829Z" fill="#FFCC00"/>
<path d="M10.1944 9.57916L9.25378 9.13754C8.99315 9.0151 8.88103 8.70473 9.0034 8.44404C9.12584 8.18348 9.43634 8.0716 9.6969 8.19373L10.6375 8.63529C10.8982 8.75773 11.0103 9.06816 10.8879 9.32879C10.7658 9.58898 10.4555 9.7016 10.1944 9.57916Z" fill="#FFCC00"/>
<path d="M22.4443 19.9507C22.2941 19.705 22.3717 19.3842 22.6174 19.2341L23.5041 18.6925C23.7498 18.5425 24.0706 18.62 24.2207 18.8657C24.3708 19.1114 24.2933 19.4322 24.0475 19.5824L23.1609 20.1239C22.9156 20.2739 22.5944 20.1967 22.4443 19.9507Z" fill="#FFCC00"/>
<path d="M4.49871 21.2512C3.97552 21.2512 3.77721 20.5591 4.22646 20.2849L5.11321 19.7433C5.35896 19.5933 5.67977 19.6708 5.82983 19.9165C5.97989 20.1622 5.90233 20.4831 5.65671 20.6332L4.76996 21.1747C4.68515 21.2266 4.5914 21.2512 4.49871 21.2512Z" fill="#FFCC00"/>
</g>
<defs>
<clipPath id="clip0">
<rect width="32" height="32" fill="white"/>
</clipPath>
</defs>
</svg>
